<mxfile host="65bd71144e">
    <diagram name="Research Emissions Sankey" id="emissions-sankey">
        <mxGraphModel dx="690" dy="428" grid="1" gridSize="10" guides="1" tooltips="1" connect="1" arrows="1" fold="1" page="1" pageScale="1" pageWidth="1100" pageHeight="850" math="0" shadow="0">
            <root>
                <mxCell id="0"/>
                <mxCell id="1" parent="0"/>
                <mxCell id="2" value="&lt;font style=&quot;font-size: 20px;&quot;&gt;&lt;b&gt;Clinical Research Carbon Emissions - 27.5 Mt COâ‚‚e/year&lt;/b&gt;&lt;/font&gt;" style="text;html=1;strokeColor=none;fillColor=none;align=center;verticalAlign=middle;whiteSpace=wrap;rounded=0;fontColor=#00539B;" parent="1" vertex="1">
                    <mxGeometry x="220" y="20" width="660" height="30" as="geometry"/>
                </mxCell>
                <mxCell id="3" value="&lt;font style=&quot;font-size: 14px;&quot;&gt;&lt;b&gt;Clinical Trial&lt;br&gt;Activities&lt;/b&gt;&lt;/font&gt;" style="rounded=1;whiteSpace=wrap;html=1;fillColor=#00539B;strokeColor=#00539B;fontColor=#FFFFFF;" parent="1" vertex="1">
                    <mxGeometry x="100" y="150" width="120" height="350" as="geometry"/>
                </mxCell>
                <mxCell id="4" value="&lt;font style=&quot;font-size: 14px;&quot;&gt;&lt;b&gt;Site Energy&lt;br&gt;(38%)&lt;/b&gt;&lt;/font&gt;" style="rounded=1;whiteSpace=wrap;html=1;fillColor=#228B22;strokeColor=#228B22;fontColor=#FFFFFF;" parent="1" vertex="1">
                    <mxGeometry x="400" y="100" width="120" height="100" as="geometry"/>
                </mxCell>
                <mxCell id="5" value="&lt;font style=&quot;font-size: 14px;&quot;&gt;&lt;b&gt;Travel&lt;br&gt;(22%)&lt;/b&gt;&lt;/font&gt;" style="rounded=1;whiteSpace=wrap;html=1;fillColor=#87CEFA;strokeColor=#00539B;fontColor=#000000;" parent="1" vertex="1">
                    <mxGeometry x="400" y="220" width="120" height="80" as="geometry"/>
                </mxCell>
                <mxCell id="6" value="&lt;font style=&quot;font-size: 14px;&quot;&gt;&lt;b&gt;Lab Equipment&lt;br&gt;(19%)&lt;/b&gt;&lt;/font&gt;" style="rounded=1;whiteSpace=wrap;html=1;fillColor=#FF8C00;strokeColor=#FF8C00;fontColor=#FFFFFF;" parent="1" vertex="1">
                    <mxGeometry x="400" y="320" width="120" height="75" as="geometry"/>
                </mxCell>
                <mxCell id="7" value="&lt;font style=&quot;font-size: 14px;&quot;&gt;&lt;b&gt;Logistics&lt;br&gt;(12%)&lt;/b&gt;&lt;/font&gt;" style="rounded=1;whiteSpace=wrap;html=1;fillColor=#B22222;strokeColor=#B22222;fontColor=#FFFFFF;" parent="1" vertex="1">
                    <mxGeometry x="400" y="415" width="120" height="45" as="geometry"/>
                </mxCell>
                <mxCell id="8" value="&lt;font style=&quot;font-size: 14px;&quot;&gt;&lt;b&gt;Other&lt;br&gt;(9%)&lt;/b&gt;&lt;/font&gt;" style="rounded=1;whiteSpace=wrap;html=1;fillColor=#666666;strokeColor=#666666;fontColor=#FFFFFF;" parent="1" vertex="1">
                    <mxGeometry x="400" y="480" width="120" height="40" as="geometry"/>
                </mxCell>
                <mxCell id="9" value="" style="endArrow=none;html=1;rounded=0;strokeWidth=85;strokeColor=#228B22;endFill=0;opacity=60;edgeStyle=orthogonalEdgeStyle;entryX=0;entryY=0.5;entryDx=0;entryDy=0;exitX=1;exitY=0.25;exitDx=0;exitDy=0;" parent="1" source="3" target="4" edge="1">
                    <mxGeometry width="50" height="50" relative="1" as="geometry">
                        <mxPoint x="520" y="370" as="sourcePoint"/>
                        <mxPoint x="570" y="320" as="targetPoint"/>
                        <Array as="points">
                            <mxPoint x="290" y="238"/>
                            <mxPoint x="290" y="150"/>
                        </Array>
                    </mxGeometry>
                </mxCell>
                <mxCell id="10" value="" style="endArrow=none;html=1;rounded=0;strokeWidth=50;strokeColor=#87CEFA;endFill=0;opacity=60;edgeStyle=orthogonalEdgeStyle;entryX=0;entryY=0.5;entryDx=0;entryDy=0;exitX=1;exitY=0.4;exitDx=0;exitDy=0;" parent="1" source="3" target="5" edge="1">
                    <mxGeometry width="50" height="50" relative="1" as="geometry">
                        <mxPoint x="520" y="370" as="sourcePoint"/>
                        <mxPoint x="570" y="320" as="targetPoint"/>
                        <Array as="points">
                            <mxPoint x="290" y="290"/>
                            <mxPoint x="290" y="260"/>
                        </Array>
                    </mxGeometry>
                </mxCell>
                <mxCell id="11" value="" style="endArrow=none;html=1;rounded=0;strokeWidth=42;strokeColor=#FF8C00;endFill=0;opacity=60;edgeStyle=orthogonalEdgeStyle;entryX=0;entryY=0.5;entryDx=0;entryDy=0;exitX=1;exitY=0.6;exitDx=0;exitDy=0;" parent="1" source="3" target="6" edge="1">
                    <mxGeometry width="50" height="50" relative="1" as="geometry">
                        <mxPoint x="230" y="350" as="sourcePoint"/>
                        <mxPoint x="570" y="320" as="targetPoint"/>
                        <Array as="points">
                            <mxPoint x="290" y="360"/>
                            <mxPoint x="290" y="358"/>
                        </Array>
                    </mxGeometry>
                </mxCell>
                <mxCell id="12" value="" style="endArrow=none;html=1;rounded=0;strokeWidth=28;strokeColor=#B22222;endFill=0;opacity=60;edgeStyle=orthogonalEdgeStyle;entryX=0;entryY=0.5;entryDx=0;entryDy=0;exitX=1;exitY=0.75;exitDx=0;exitDy=0;" parent="1" source="3" target="7" edge="1">
                    <mxGeometry width="50" height="50" relative="1" as="geometry">
                        <mxPoint x="520" y="370" as="sourcePoint"/>
                        <mxPoint x="570" y="320" as="targetPoint"/>
                        <Array as="points">
                            <mxPoint x="290" y="413"/>
                            <mxPoint x="290" y="438"/>
                        </Array>
                    </mxGeometry>
                </mxCell>
                <mxCell id="13" value="" style="endArrow=none;html=1;rounded=0;strokeWidth=20;strokeColor=#666666;endFill=0;opacity=60;edgeStyle=orthogonalEdgeStyle;entryX=0;entryY=0.5;entryDx=0;entryDy=0;exitX=1;exitY=0.9;exitDx=0;exitDy=0;" parent="1" source="3" target="8" edge="1">
                    <mxGeometry width="50" height="50" relative="1" as="geometry">
                        <mxPoint x="520" y="370" as="sourcePoint"/>
                        <mxPoint x="570" y="320" as="targetPoint"/>
                        <Array as="points">
                            <mxPoint x="290" y="465"/>
                            <mxPoint x="290" y="500"/>
                        </Array>
                    </mxGeometry>
                </mxCell>
                <mxCell id="14" value="&lt;font style=&quot;font-size: 12px;&quot;&gt;Building HVAC&lt;/font&gt;" style="rounded=1;whiteSpace=wrap;html=1;fillColor=#228B22;strokeColor=#228B22;fontColor=#FFFFFF;opacity=80;" parent="1" vertex="1">
                    <mxGeometry x="600" y="80" width="120" height="40" as="geometry"/>
                </mxCell>
                <mxCell id="15" value="&lt;font style=&quot;font-size: 12px;&quot;&gt;Lab Operations&lt;/font&gt;" style="rounded=1;whiteSpace=wrap;html=1;fillColor=#228B22;strokeColor=#228B22;fontColor=#FFFFFF;opacity=80;" parent="1" vertex="1">
                    <mxGeometry x="600" y="130" width="120" height="40" as="geometry"/>
                </mxCell>
                <mxCell id="16" value="&lt;font style=&quot;font-size: 12px;&quot;&gt;IT Infrastructure&lt;/font&gt;" style="rounded=1;whiteSpace=wrap;html=1;fillColor=#228B22;strokeColor=#228B22;fontColor=#FFFFFF;opacity=80;" parent="1" vertex="1">
                    <mxGeometry x="600" y="180" width="120" height="40" as="geometry"/>
                </mxCell>
                <mxCell id="17" value="&lt;font style=&quot;font-size: 12px;&quot;&gt;Staff Travel&lt;/font&gt;" style="rounded=1;whiteSpace=wrap;html=1;fillColor=#87CEFA;strokeColor=#00539B;fontColor=#000000;opacity=80;" parent="1" vertex="1">
                    <mxGeometry x="600" y="230" width="120" height="30" as="geometry"/>
                </mxCell>
                <mxCell id="18" value="&lt;font style=&quot;font-size: 12px;&quot;&gt;Participant Travel&lt;/font&gt;" style="rounded=1;whiteSpace=wrap;html=1;fillColor=#87CEFA;strokeColor=#00539B;fontColor=#000000;opacity=80;" parent="1" vertex="1">
                    <mxGeometry x="600" y="270" width="120" height="30" as="geometry"/>
                </mxCell>
                <mxCell id="19" value="&lt;font style=&quot;font-size: 12px;&quot;&gt;Freezers &amp; Storage&lt;/font&gt;" style="rounded=1;whiteSpace=wrap;html=1;fillColor=#FF8C00;strokeColor=#FF8C00;fontColor=#FFFFFF;opacity=80;" parent="1" vertex="1">
                    <mxGeometry x="600" y="310" width="120" height="30" as="geometry"/>
                </mxCell>
                <mxCell id="20" value="&lt;font style=&quot;font-size: 12px;&quot;&gt;Analytical Devices&lt;/font&gt;" style="rounded=1;whiteSpace=wrap;html=1;fillColor=#FF8C00;strokeColor=#FF8C00;fontColor=#FFFFFF;opacity=80;" parent="1" vertex="1">
                    <mxGeometry x="600" y="350" width="120" height="30" as="geometry"/>
                </mxCell>
                <mxCell id="21" value="&lt;font style=&quot;font-size: 12px;&quot;&gt;Single-Use Materials&lt;/font&gt;" style="rounded=1;whiteSpace=wrap;html=1;fillColor=#FF8C00;strokeColor=#FF8C00;fontColor=#FFFFFF;opacity=80;" parent="1" vertex="1">
                    <mxGeometry x="600" y="390" width="120" height="30" as="geometry"/>
                </mxCell>
                <mxCell id="22" value="&lt;font style=&quot;font-size: 12px;&quot;&gt;Sample Transport&lt;/font&gt;" style="rounded=1;whiteSpace=wrap;html=1;fillColor=#B22222;strokeColor=#B22222;fontColor=#FFFFFF;opacity=80;" parent="1" vertex="1">
                    <mxGeometry x="600" y="430" width="120" height="25" as="geometry"/>
                </mxCell>
                <mxCell id="23" value="&lt;font style=&quot;font-size: 12px;&quot;&gt;Supply Distribution&lt;/font&gt;" style="rounded=1;whiteSpace=wrap;html=1;fillColor=#B22222;strokeColor=#B22222;fontColor=#FFFFFF;opacity=80;" parent="1" vertex="1">
                    <mxGeometry x="600" y="465" width="120" height="25" as="geometry"/>
                </mxCell>
                <mxCell id="24" value="&lt;font style=&quot;font-size: 12px;&quot;&gt;Admin &amp; Misc.&lt;/font&gt;" style="rounded=1;whiteSpace=wrap;html=1;fillColor=#666666;strokeColor=#666666;fontColor=#FFFFFF;opacity=80;" parent="1" vertex="1">
                    <mxGeometry x="600" y="500" width="120" height="20" as="geometry"/>
                </mxCell>
                <mxCell id="25" value="" style="endArrow=none;html=1;rounded=0;strokeWidth=40;strokeColor=#228B22;endFill=0;opacity=30;entryX=0;entryY=0.5;entryDx=0;entryDy=0;exitX=1;exitY=0.25;exitDx=0;exitDy=0;" parent="1" source="4" target="14" edge="1">
                    <mxGeometry width="50" height="50" relative="1" as="geometry">
                        <mxPoint x="520" y="370" as="sourcePoint"/>
                        <mxPoint x="570" y="320" as="targetPoint"/>
                    </mxGeometry>
                </mxCell>
                <mxCell id="26" value="" style="endArrow=none;html=1;rounded=0;strokeWidth=30;strokeColor=#228B22;endFill=0;opacity=30;entryX=0;entryY=0.5;entryDx=0;entryDy=0;exitX=1;exitY=0.5;exitDx=0;exitDy=0;" parent="1" source="4" target="15" edge="1">
                    <mxGeometry width="50" height="50" relative="1" as="geometry">
                        <mxPoint x="520" y="370" as="sourcePoint"/>
                        <mxPoint x="570" y="320" as="targetPoint"/>
                    </mxGeometry>
                </mxCell>
                <mxCell id="27" value="" style="endArrow=none;html=1;rounded=0;strokeWidth=25;strokeColor=#228B22;endFill=0;opacity=30;entryX=0;entryY=0.5;entryDx=0;entryDy=0;exitX=1;exitY=0.75;exitDx=0;exitDy=0;" parent="1" source="4" target="16" edge="1">
                    <mxGeometry width="50" height="50" relative="1" as="geometry">
                        <mxPoint x="520" y="370" as="sourcePoint"/>
                        <mxPoint x="570" y="320" as="targetPoint"/>
                    </mxGeometry>
                </mxCell>
                <mxCell id="28" value="" style="endArrow=none;html=1;rounded=0;strokeWidth=30;strokeColor=#87CEFA;endFill=0;opacity=30;entryX=0;entryY=0.5;entryDx=0;entryDy=0;exitX=1;exitY=0.25;exitDx=0;exitDy=0;" parent="1" source="5" target="17" edge="1">
                    <mxGeometry width="50" height="50" relative="1" as="geometry">
                        <mxPoint x="520" y="370" as="sourcePoint"/>
                        <mxPoint x="570" y="320" as="targetPoint"/>
                    </mxGeometry>
                </mxCell>
                <mxCell id="29" value="" style="endArrow=none;html=1;rounded=0;strokeWidth=30;strokeColor=#87CEFA;endFill=0;opacity=30;entryX=0;entryY=0.5;entryDx=0;entryDy=0;exitX=1;exitY=0.75;exitDx=0;exitDy=0;" parent="1" source="5" target="18" edge="1">
                    <mxGeometry width="50" height="50" relative="1" as="geometry">
                        <mxPoint x="520" y="370" as="sourcePoint"/>
                        <mxPoint x="570" y="320" as="targetPoint"/>
                    </mxGeometry>
                </mxCell>
                <mxCell id="30" value="Source: Nature, 2021: d41586-021-02696-6" style="text;html=1;strokeColor=none;fillColor=none;align=right;verticalAlign=middle;whiteSpace=wrap;rounded=0;fontColor=#666666;fontSize=10;" parent="1" vertex="1">
                    <mxGeometry x="470" y="540" width="250" height="20" as="geometry"/>
                </mxCell>
                <mxCell id="31" value="Healthcare contributes 4-5% of global GHG emissions&#10;Clinical trials: 27.5 Mt COâ‚‚e/year from 350,000 trials" style="shape=callout;whiteSpace=wrap;html=1;perimeter=calloutPerimeter;position2=0.42;fillColor=#00539B;fontColor=#FFFFFF;strokeColor=#00539B;base=20;size=30;position=0.42;" parent="1" vertex="1">
                    <mxGeometry x="740" y="100" width="250" height="100" as="geometry"/>
                </mxCell>
            </root>
        </mxGraphModel>
    </diagram>
</mxfile>